<mxfile host="app.diagrams.net" modified="2023-04-24T14:32:44.275Z" agent="Mozilla/5.0 (Windows NT 10.0; Win64; x64) AppleWebKit/537.36 (KHTML, like Gecko) Chrome/112.0.0.0 Safari/537.36" etag="BbRURvInhEpAab0zZjPy" version="21.2.1" type="device">
  <diagram name="Página-1" id="JcBPUllv5kBONkPv-t-B">
    <mxGraphModel dx="2261" dy="1965" grid="1" gridSize="10" guides="1" tooltips="1" connect="1" arrows="1" fold="1" page="1" pageScale="1" pageWidth="827" pageHeight="1169" math="0" shadow="0">
      <root>
        <mxCell id="0" />
        <mxCell id="1" parent="0" />
        <mxCell id="u1Pb9LZNwORxA4Dk1w96-140" value="&lt;font color=&quot;#7c608a&quot;&gt;Os atributos se aplicam a todos a baixo da generalização&lt;/font&gt;" style="shape=note;size=20;whiteSpace=wrap;html=1;align=center;verticalAlign=bottom;fontSize=12;sketch=1;curveFitting=1;jiggle=2;fillColor=#e1d5e7;strokeColor=#9673a6;fontFamily=Comic Sans MS;" vertex="1" parent="1">
          <mxGeometry x="515" y="-10" width="140" height="75" as="geometry" />
        </mxCell>
        <mxCell id="u1Pb9LZNwORxA4Dk1w96-33" value="Funcionários" style="whiteSpace=wrap;html=1;align=center;" vertex="1" parent="1">
          <mxGeometry x="345" y="-10" width="100" height="40" as="geometry" />
        </mxCell>
        <mxCell id="u1Pb9LZNwORxA4Dk1w96-34" value="Sec" style="whiteSpace=wrap;html=1;align=center;" vertex="1" parent="1">
          <mxGeometry x="345" y="110" width="100" height="40" as="geometry" />
        </mxCell>
        <mxCell id="u1Pb9LZNwORxA4Dk1w96-35" value="Eng" style="whiteSpace=wrap;html=1;align=center;" vertex="1" parent="1">
          <mxGeometry x="225" y="110" width="100" height="40" as="geometry" />
        </mxCell>
        <mxCell id="u1Pb9LZNwORxA4Dk1w96-36" value="Tec" style="whiteSpace=wrap;html=1;align=center;" vertex="1" parent="1">
          <mxGeometry x="465" y="110" width="100" height="40" as="geometry" />
        </mxCell>
        <mxCell id="u1Pb9LZNwORxA4Dk1w96-37" value="" style="endArrow=none;html=1;rounded=0;" edge="1" parent="1">
          <mxGeometry relative="1" as="geometry">
            <mxPoint x="275" y="70" as="sourcePoint" />
            <mxPoint x="515" y="70" as="targetPoint" />
          </mxGeometry>
        </mxCell>
        <mxCell id="u1Pb9LZNwORxA4Dk1w96-38" value="" style="endArrow=none;html=1;rounded=0;" edge="1" parent="1">
          <mxGeometry relative="1" as="geometry">
            <mxPoint x="274.5" y="70" as="sourcePoint" />
            <mxPoint x="274.5" y="110" as="targetPoint" />
          </mxGeometry>
        </mxCell>
        <mxCell id="u1Pb9LZNwORxA4Dk1w96-39" value="" style="endArrow=none;html=1;rounded=0;" edge="1" parent="1">
          <mxGeometry relative="1" as="geometry">
            <mxPoint x="514.5" y="70" as="sourcePoint" />
            <mxPoint x="514.5" y="110" as="targetPoint" />
          </mxGeometry>
        </mxCell>
        <mxCell id="u1Pb9LZNwORxA4Dk1w96-40" value="" style="endArrow=none;html=1;rounded=0;" edge="1" parent="1">
          <mxGeometry relative="1" as="geometry">
            <mxPoint x="394.5" y="30" as="sourcePoint" />
            <mxPoint x="394.5" y="70" as="targetPoint" />
          </mxGeometry>
        </mxCell>
        <mxCell id="u1Pb9LZNwORxA4Dk1w96-41" value="" style="endArrow=none;html=1;rounded=0;" edge="1" parent="1">
          <mxGeometry relative="1" as="geometry">
            <mxPoint x="394.5" y="70" as="sourcePoint" />
            <mxPoint x="394.5" y="110" as="targetPoint" />
          </mxGeometry>
        </mxCell>
        <mxCell id="u1Pb9LZNwORxA4Dk1w96-42" value="Nome" style="ellipse;whiteSpace=wrap;html=1;align=center;" vertex="1" parent="1">
          <mxGeometry x="365" y="-80" width="60" height="30" as="geometry" />
        </mxCell>
        <mxCell id="u1Pb9LZNwORxA4Dk1w96-47" value="Cod" style="ellipse;whiteSpace=wrap;html=1;align=center;fontStyle=4" vertex="1" parent="1">
          <mxGeometry x="285" y="-80" width="60" height="30" as="geometry" />
        </mxCell>
        <mxCell id="u1Pb9LZNwORxA4Dk1w96-48" value="Endereco" style="ellipse;whiteSpace=wrap;html=1;align=center;" vertex="1" parent="1">
          <mxGeometry x="445" y="-80" width="60" height="30" as="geometry" />
        </mxCell>
        <mxCell id="u1Pb9LZNwORxA4Dk1w96-49" value="" style="endArrow=none;html=1;rounded=0;exitX=0.5;exitY=0;exitDx=0;exitDy=0;entryX=0.5;entryY=1;entryDx=0;entryDy=0;" edge="1" parent="1" source="u1Pb9LZNwORxA4Dk1w96-33" target="u1Pb9LZNwORxA4Dk1w96-48">
          <mxGeometry width="50" height="50" relative="1" as="geometry">
            <mxPoint x="745" y="70" as="sourcePoint" />
            <mxPoint x="795" y="20" as="targetPoint" />
            <Array as="points">
              <mxPoint x="475" y="-30" />
            </Array>
          </mxGeometry>
        </mxCell>
        <mxCell id="u1Pb9LZNwORxA4Dk1w96-51" value="" style="endArrow=none;html=1;rounded=0;entryX=0.5;entryY=0;entryDx=0;entryDy=0;exitX=0.5;exitY=1;exitDx=0;exitDy=0;" edge="1" parent="1" source="u1Pb9LZNwORxA4Dk1w96-42" target="u1Pb9LZNwORxA4Dk1w96-33">
          <mxGeometry width="50" height="50" relative="1" as="geometry">
            <mxPoint x="175" y="40" as="sourcePoint" />
            <mxPoint x="225" y="-10" as="targetPoint" />
          </mxGeometry>
        </mxCell>
        <mxCell id="u1Pb9LZNwORxA4Dk1w96-52" value="" style="endArrow=none;html=1;rounded=0;exitX=0.5;exitY=0;exitDx=0;exitDy=0;entryX=0.5;entryY=1;entryDx=0;entryDy=0;" edge="1" parent="1" source="u1Pb9LZNwORxA4Dk1w96-33" target="u1Pb9LZNwORxA4Dk1w96-47">
          <mxGeometry width="50" height="50" relative="1" as="geometry">
            <mxPoint x="115" y="30" as="sourcePoint" />
            <mxPoint x="165" y="-20" as="targetPoint" />
            <Array as="points">
              <mxPoint x="315" y="-30" />
            </Array>
          </mxGeometry>
        </mxCell>
        <mxCell id="u1Pb9LZNwORxA4Dk1w96-59" value="" style="edgeStyle=orthogonalEdgeStyle;rounded=0;orthogonalLoop=1;jettySize=auto;html=1;sketch=1;curveFitting=1;jiggle=2;strokeColor=#9673A6;" edge="1" parent="1">
          <mxGeometry relative="1" as="geometry">
            <mxPoint x="455" y="9.579999999999998" as="sourcePoint" />
            <mxPoint x="505" y="9.579999999999998" as="targetPoint" />
          </mxGeometry>
        </mxCell>
        <mxCell id="u1Pb9LZNwORxA4Dk1w96-55" value="&lt;font face=&quot;Comic Sans MS&quot; size=&quot;1&quot; color=&quot;#7c608a&quot; style=&quot;&quot;&gt;&lt;b style=&quot;font-size: 12px;&quot;&gt;Generalização&lt;/b&gt;&lt;/font&gt;" style="rounded=1;whiteSpace=wrap;html=1;strokeWidth=2;fillWeight=4;hachureGap=8;hachureAngle=45;fillColor=none;strokeColor=#9673a6;glass=0;shadow=0;sketch=1;curveFitting=1;jiggle=2;arcSize=50;" vertex="1" parent="1">
          <mxGeometry x="515" y="-10" width="90" height="30" as="geometry" />
        </mxCell>
        <mxCell id="u1Pb9LZNwORxA4Dk1w96-62" value="Pessoa" style="whiteSpace=wrap;html=1;align=center;fillColor=#dae8fc;strokeColor=#6c8ebf;" vertex="1" parent="1">
          <mxGeometry x="350" y="400" width="100" height="40" as="geometry" />
        </mxCell>
        <mxCell id="u1Pb9LZNwORxA4Dk1w96-70" value="Exemplo empresa" style="text;html=1;align=center;verticalAlign=middle;resizable=0;points=[];autosize=1;strokeColor=none;fillColor=none;fontSize=17;fontStyle=1" vertex="1" parent="1">
          <mxGeometry x="315" y="250" width="170" height="30" as="geometry" />
        </mxCell>
        <mxCell id="u1Pb9LZNwORxA4Dk1w96-72" value="Pessoa Fisica" style="whiteSpace=wrap;html=1;align=center;fillColor=#dae8fc;strokeColor=#6c8ebf;" vertex="1" parent="1">
          <mxGeometry x="-10" y="560" width="100" height="40" as="geometry" />
        </mxCell>
        <mxCell id="u1Pb9LZNwORxA4Dk1w96-73" value="Nome" style="ellipse;whiteSpace=wrap;html=1;align=center;fillColor=#fff2cc;strokeColor=#d6b656;" vertex="1" parent="1">
          <mxGeometry x="330" y="329" width="60" height="30" as="geometry" />
        </mxCell>
        <mxCell id="u1Pb9LZNwORxA4Dk1w96-74" value="Pessoa Juridica" style="whiteSpace=wrap;html=1;align=center;fillColor=#dae8fc;strokeColor=#6c8ebf;" vertex="1" parent="1">
          <mxGeometry x="150" y="560" width="100" height="40" as="geometry" />
        </mxCell>
        <mxCell id="u1Pb9LZNwORxA4Dk1w96-90" value="Gerente" style="whiteSpace=wrap;html=1;align=center;fillColor=#dae8fc;strokeColor=#6c8ebf;" vertex="1" parent="1">
          <mxGeometry x="550" y="560" width="100" height="40" as="geometry" />
        </mxCell>
        <mxCell id="u1Pb9LZNwORxA4Dk1w96-91" value="Empregado" style="whiteSpace=wrap;html=1;align=center;fillColor=#dae8fc;strokeColor=#6c8ebf;" vertex="1" parent="1">
          <mxGeometry x="710" y="560" width="100" height="40" as="geometry" />
        </mxCell>
        <mxCell id="u1Pb9LZNwORxA4Dk1w96-94" value="Cod" style="ellipse;whiteSpace=wrap;html=1;align=center;fillColor=#fff2cc;strokeColor=#d6b656;" vertex="1" parent="1">
          <mxGeometry x="250" y="331" width="60" height="30" as="geometry" />
        </mxCell>
        <mxCell id="u1Pb9LZNwORxA4Dk1w96-101" value="idade" style="ellipse;whiteSpace=wrap;html=1;align=center;fillColor=#fff2cc;strokeColor=#d6b656;" vertex="1" parent="1">
          <mxGeometry x="-150" y="530" width="60" height="30" as="geometry" />
        </mxCell>
        <mxCell id="u1Pb9LZNwORxA4Dk1w96-102" value="tele" style="ellipse;whiteSpace=wrap;html=1;align=center;fillColor=#fff2cc;strokeColor=#d6b656;" vertex="1" parent="1">
          <mxGeometry x="-150" y="565" width="60" height="30" as="geometry" />
        </mxCell>
        <mxCell id="u1Pb9LZNwORxA4Dk1w96-103" value="sexo" style="ellipse;whiteSpace=wrap;html=1;align=center;fillColor=#fff2cc;strokeColor=#d6b656;" vertex="1" parent="1">
          <mxGeometry x="-150" y="600" width="60" height="30" as="geometry" />
        </mxCell>
        <mxCell id="u1Pb9LZNwORxA4Dk1w96-107" value="cnpj" style="ellipse;whiteSpace=wrap;html=1;align=center;" vertex="1" parent="1">
          <mxGeometry x="290" y="540" width="60" height="30" as="geometry" />
        </mxCell>
        <mxCell id="u1Pb9LZNwORxA4Dk1w96-108" value="nome-fant" style="ellipse;whiteSpace=wrap;html=1;align=center;fillColor=#fff2cc;strokeColor=#d6b656;" vertex="1" parent="1">
          <mxGeometry x="290" y="590" width="60" height="30" as="geometry" />
        </mxCell>
        <mxCell id="u1Pb9LZNwORxA4Dk1w96-109" value="cnpj" style="ellipse;whiteSpace=wrap;html=1;align=center;fillColor=#fff2cc;strokeColor=#d6b656;" vertex="1" parent="1">
          <mxGeometry x="290" y="540" width="60" height="30" as="geometry" />
        </mxCell>
        <mxCell id="u1Pb9LZNwORxA4Dk1w96-112" value="form-acad" style="ellipse;whiteSpace=wrap;html=1;align=center;fillColor=#fff2cc;strokeColor=#d6b656;" vertex="1" parent="1">
          <mxGeometry x="450" y="540" width="60" height="30" as="geometry" />
        </mxCell>
        <mxCell id="u1Pb9LZNwORxA4Dk1w96-113" value="salario" style="ellipse;whiteSpace=wrap;html=1;align=center;fillColor=#fff2cc;strokeColor=#d6b656;" vertex="1" parent="1">
          <mxGeometry x="450" y="590" width="60" height="30" as="geometry" />
        </mxCell>
        <mxCell id="u1Pb9LZNwORxA4Dk1w96-116" value="turno" style="ellipse;whiteSpace=wrap;html=1;align=center;fillColor=#fff2cc;strokeColor=#d6b656;" vertex="1" parent="1">
          <mxGeometry x="850" y="540" width="60" height="30" as="geometry" />
        </mxCell>
        <mxCell id="u1Pb9LZNwORxA4Dk1w96-117" value="hrs-trab" style="ellipse;whiteSpace=wrap;html=1;align=center;fillColor=#fff2cc;strokeColor=#d6b656;" vertex="1" parent="1">
          <mxGeometry x="850" y="590" width="60" height="30" as="geometry" />
        </mxCell>
        <mxCell id="u1Pb9LZNwORxA4Dk1w96-121" value="encarregado" style="shape=rhombus;perimeter=rhombusPerimeter;whiteSpace=wrap;html=1;align=center;fillColor=#d5e8d4;strokeColor=#82b366;rounded=0;" vertex="1" parent="1">
          <mxGeometry x="620" y="640" width="120" height="40" as="geometry" />
        </mxCell>
        <mxCell id="u1Pb9LZNwORxA4Dk1w96-127" value="endereco" style="ellipse;shape=doubleEllipse;margin=3;whiteSpace=wrap;html=1;align=center;fillColor=#fff2cc;strokeColor=#d6b656;" vertex="1" parent="1">
          <mxGeometry x="490" y="330" width="60" height="32" as="geometry" />
        </mxCell>
        <mxCell id="u1Pb9LZNwORxA4Dk1w96-128" value="e-mail" style="ellipse;whiteSpace=wrap;html=1;align=center;fillColor=#fff2cc;strokeColor=#d6b656;" vertex="1" parent="1">
          <mxGeometry x="410" y="329" width="60" height="30" as="geometry" />
        </mxCell>
        <mxCell id="u1Pb9LZNwORxA4Dk1w96-129" value="rua" style="ellipse;whiteSpace=wrap;html=1;align=center;fillColor=#fff2cc;strokeColor=#d6b656;" vertex="1" parent="1">
          <mxGeometry x="570" y="290" width="60" height="30" as="geometry" />
        </mxCell>
        <mxCell id="u1Pb9LZNwORxA4Dk1w96-130" value="bairro" style="ellipse;whiteSpace=wrap;html=1;align=center;fillColor=#fff2cc;strokeColor=#d6b656;" vertex="1" parent="1">
          <mxGeometry x="570" y="330" width="60" height="30" as="geometry" />
        </mxCell>
        <mxCell id="u1Pb9LZNwORxA4Dk1w96-131" value="num" style="ellipse;whiteSpace=wrap;html=1;align=center;fillColor=#fff2cc;strokeColor=#d6b656;" vertex="1" parent="1">
          <mxGeometry x="570" y="370" width="60" height="30" as="geometry" />
        </mxCell>
        <mxCell id="u1Pb9LZNwORxA4Dk1w96-138" value="" style="group;rounded=0;arcSize=50;" vertex="1" connectable="0" parent="1">
          <mxGeometry x="-50" y="380" width="880" height="235" as="geometry" />
        </mxCell>
        <mxCell id="u1Pb9LZNwORxA4Dk1w96-66" value="" style="endArrow=none;html=1;rounded=0;" edge="1" parent="u1Pb9LZNwORxA4Dk1w96-138">
          <mxGeometry relative="1" as="geometry">
            <mxPoint x="170" y="140" as="sourcePoint" />
            <mxPoint x="450" y="100" as="targetPoint" />
            <Array as="points">
              <mxPoint x="170" y="100" />
            </Array>
          </mxGeometry>
        </mxCell>
        <mxCell id="u1Pb9LZNwORxA4Dk1w96-67" value="" style="endArrow=none;html=1;rounded=0;" edge="1" parent="u1Pb9LZNwORxA4Dk1w96-138">
          <mxGeometry relative="1" as="geometry">
            <mxPoint x="730" y="140" as="sourcePoint" />
            <mxPoint x="450" y="100" as="targetPoint" />
            <Array as="points">
              <mxPoint x="730" y="100" />
            </Array>
          </mxGeometry>
        </mxCell>
        <mxCell id="u1Pb9LZNwORxA4Dk1w96-68" value="" style="endArrow=none;html=1;rounded=0;exitX=0.5;exitY=0;exitDx=0;exitDy=0;" edge="1" parent="u1Pb9LZNwORxA4Dk1w96-138">
          <mxGeometry relative="1" as="geometry">
            <mxPoint x="449.58" y="100" as="sourcePoint" />
            <mxPoint x="449.58" y="60" as="targetPoint" />
          </mxGeometry>
        </mxCell>
        <mxCell id="u1Pb9LZNwORxA4Dk1w96-75" value="" style="endArrow=none;html=1;rounded=0;exitX=0.5;exitY=0;exitDx=0;exitDy=0;" edge="1" parent="u1Pb9LZNwORxA4Dk1w96-138" source="u1Pb9LZNwORxA4Dk1w96-72">
          <mxGeometry relative="1" as="geometry">
            <mxPoint x="90" y="140" as="sourcePoint" />
            <mxPoint x="170" y="140" as="targetPoint" />
            <Array as="points">
              <mxPoint x="90" y="140" />
            </Array>
          </mxGeometry>
        </mxCell>
        <mxCell id="u1Pb9LZNwORxA4Dk1w96-76" value="" style="endArrow=none;html=1;rounded=0;exitX=0.5;exitY=0;exitDx=0;exitDy=0;" edge="1" parent="u1Pb9LZNwORxA4Dk1w96-138" source="u1Pb9LZNwORxA4Dk1w96-74">
          <mxGeometry relative="1" as="geometry">
            <mxPoint x="100" y="190" as="sourcePoint" />
            <mxPoint x="170" y="140" as="targetPoint" />
            <Array as="points">
              <mxPoint x="250" y="140" />
            </Array>
          </mxGeometry>
        </mxCell>
        <mxCell id="u1Pb9LZNwORxA4Dk1w96-88" value="" style="endArrow=none;html=1;rounded=0;exitX=0.5;exitY=0;exitDx=0;exitDy=0;" edge="1" parent="u1Pb9LZNwORxA4Dk1w96-138">
          <mxGeometry relative="1" as="geometry">
            <mxPoint x="650" y="180" as="sourcePoint" />
            <mxPoint x="730" y="140" as="targetPoint" />
            <Array as="points">
              <mxPoint x="650" y="140" />
            </Array>
          </mxGeometry>
        </mxCell>
        <mxCell id="u1Pb9LZNwORxA4Dk1w96-89" value="" style="endArrow=none;html=1;rounded=0;exitX=0.5;exitY=0;exitDx=0;exitDy=0;" edge="1" parent="u1Pb9LZNwORxA4Dk1w96-138">
          <mxGeometry relative="1" as="geometry">
            <mxPoint x="810" y="180" as="sourcePoint" />
            <mxPoint x="730" y="140" as="targetPoint" />
            <Array as="points">
              <mxPoint x="810" y="140" />
            </Array>
          </mxGeometry>
        </mxCell>
        <mxCell id="u1Pb9LZNwORxA4Dk1w96-96" value="" style="endArrow=none;html=1;rounded=0;entryX=0.5;entryY=0;entryDx=0;entryDy=0;exitX=0.5;exitY=1;exitDx=0;exitDy=0;" edge="1" parent="u1Pb9LZNwORxA4Dk1w96-138" source="u1Pb9LZNwORxA4Dk1w96-94" target="u1Pb9LZNwORxA4Dk1w96-62">
          <mxGeometry relative="1" as="geometry">
            <mxPoint x="250" as="sourcePoint" />
            <mxPoint x="410" as="targetPoint" />
            <Array as="points">
              <mxPoint x="330" />
            </Array>
          </mxGeometry>
        </mxCell>
        <mxCell id="u1Pb9LZNwORxA4Dk1w96-97" value="" style="endArrow=none;html=1;rounded=0;exitX=0.5;exitY=1;exitDx=0;exitDy=0;entryX=0.5;entryY=0;entryDx=0;entryDy=0;" edge="1" parent="u1Pb9LZNwORxA4Dk1w96-138" source="u1Pb9LZNwORxA4Dk1w96-73" target="u1Pb9LZNwORxA4Dk1w96-62">
          <mxGeometry relative="1" as="geometry">
            <mxPoint x="430" as="sourcePoint" />
            <mxPoint x="590" as="targetPoint" />
            <Array as="points">
              <mxPoint x="410" />
            </Array>
          </mxGeometry>
        </mxCell>
        <mxCell id="u1Pb9LZNwORxA4Dk1w96-98" value="" style="endArrow=none;html=1;rounded=0;exitX=0.5;exitY=0;exitDx=0;exitDy=0;entryX=0.5;entryY=1;entryDx=0;entryDy=0;" edge="1" parent="u1Pb9LZNwORxA4Dk1w96-138" source="u1Pb9LZNwORxA4Dk1w96-62">
          <mxGeometry relative="1" as="geometry">
            <mxPoint x="490" y="10" as="sourcePoint" />
            <mxPoint x="490" y="-20" as="targetPoint" />
            <Array as="points">
              <mxPoint x="490" />
            </Array>
          </mxGeometry>
        </mxCell>
        <mxCell id="u1Pb9LZNwORxA4Dk1w96-100" value="" style="endArrow=none;html=1;rounded=0;exitX=0.5;exitY=0;exitDx=0;exitDy=0;entryX=0.5;entryY=1;entryDx=0;entryDy=0;" edge="1" parent="u1Pb9LZNwORxA4Dk1w96-138" source="u1Pb9LZNwORxA4Dk1w96-62">
          <mxGeometry relative="1" as="geometry">
            <mxPoint x="520" as="sourcePoint" />
            <mxPoint x="570" y="-21" as="targetPoint" />
            <Array as="points">
              <mxPoint x="570" />
            </Array>
          </mxGeometry>
        </mxCell>
        <mxCell id="u1Pb9LZNwORxA4Dk1w96-104" value="" style="endArrow=none;html=1;rounded=0;exitX=1;exitY=0.5;exitDx=0;exitDy=0;entryX=0;entryY=0.5;entryDx=0;entryDy=0;" edge="1" parent="u1Pb9LZNwORxA4Dk1w96-138" source="u1Pb9LZNwORxA4Dk1w96-101" target="u1Pb9LZNwORxA4Dk1w96-72">
          <mxGeometry relative="1" as="geometry">
            <mxPoint x="80" y="270" as="sourcePoint" />
            <mxPoint x="240" y="270" as="targetPoint" />
            <Array as="points">
              <mxPoint y="165" />
            </Array>
          </mxGeometry>
        </mxCell>
        <mxCell id="u1Pb9LZNwORxA4Dk1w96-105" value="" style="endArrow=none;html=1;rounded=0;exitX=1;exitY=0.5;exitDx=0;exitDy=0;entryX=0;entryY=0.5;entryDx=0;entryDy=0;" edge="1" parent="u1Pb9LZNwORxA4Dk1w96-138" source="u1Pb9LZNwORxA4Dk1w96-102" target="u1Pb9LZNwORxA4Dk1w96-72">
          <mxGeometry relative="1" as="geometry">
            <mxPoint x="-80" y="310" as="sourcePoint" />
            <mxPoint x="80" y="310" as="targetPoint" />
          </mxGeometry>
        </mxCell>
        <mxCell id="u1Pb9LZNwORxA4Dk1w96-106" value="" style="endArrow=none;html=1;rounded=0;exitX=1;exitY=0.5;exitDx=0;exitDy=0;entryX=0;entryY=0.5;entryDx=0;entryDy=0;" edge="1" parent="u1Pb9LZNwORxA4Dk1w96-138" source="u1Pb9LZNwORxA4Dk1w96-103" target="u1Pb9LZNwORxA4Dk1w96-72">
          <mxGeometry relative="1" as="geometry">
            <mxPoint x="-90" y="280" as="sourcePoint" />
            <mxPoint x="70" y="280" as="targetPoint" />
            <Array as="points">
              <mxPoint y="235" />
            </Array>
          </mxGeometry>
        </mxCell>
        <mxCell id="u1Pb9LZNwORxA4Dk1w96-110" value="" style="endArrow=none;html=1;rounded=0;exitX=1;exitY=0.5;exitDx=0;exitDy=0;entryX=0;entryY=0.5;entryDx=0;entryDy=0;" edge="1" parent="u1Pb9LZNwORxA4Dk1w96-138" source="u1Pb9LZNwORxA4Dk1w96-74" target="u1Pb9LZNwORxA4Dk1w96-109">
          <mxGeometry relative="1" as="geometry">
            <mxPoint x="240" y="300" as="sourcePoint" />
            <mxPoint x="400" y="300" as="targetPoint" />
            <Array as="points">
              <mxPoint x="320" y="175" />
            </Array>
          </mxGeometry>
        </mxCell>
        <mxCell id="u1Pb9LZNwORxA4Dk1w96-111" value="" style="endArrow=none;html=1;rounded=0;exitX=1;exitY=0.5;exitDx=0;exitDy=0;entryX=0;entryY=0.5;entryDx=0;entryDy=0;" edge="1" parent="u1Pb9LZNwORxA4Dk1w96-138" source="u1Pb9LZNwORxA4Dk1w96-74" target="u1Pb9LZNwORxA4Dk1w96-108">
          <mxGeometry relative="1" as="geometry">
            <mxPoint x="330" y="290" as="sourcePoint" />
            <mxPoint x="490" y="290" as="targetPoint" />
            <Array as="points">
              <mxPoint x="320" y="225" />
            </Array>
          </mxGeometry>
        </mxCell>
        <mxCell id="u1Pb9LZNwORxA4Dk1w96-114" value="" style="endArrow=none;html=1;rounded=0;exitX=1;exitY=0.5;exitDx=0;exitDy=0;entryX=0;entryY=0.5;entryDx=0;entryDy=0;" edge="1" parent="u1Pb9LZNwORxA4Dk1w96-138" source="u1Pb9LZNwORxA4Dk1w96-112" target="u1Pb9LZNwORxA4Dk1w96-90">
          <mxGeometry relative="1" as="geometry">
            <mxPoint x="570" y="260" as="sourcePoint" />
            <mxPoint x="730" y="260" as="targetPoint" />
            <Array as="points">
              <mxPoint x="580" y="175" />
            </Array>
          </mxGeometry>
        </mxCell>
        <mxCell id="u1Pb9LZNwORxA4Dk1w96-115" value="" style="endArrow=none;html=1;rounded=0;exitX=1;exitY=0.5;exitDx=0;exitDy=0;entryX=0;entryY=0.5;entryDx=0;entryDy=0;" edge="1" parent="u1Pb9LZNwORxA4Dk1w96-138" source="u1Pb9LZNwORxA4Dk1w96-113" target="u1Pb9LZNwORxA4Dk1w96-90">
          <mxGeometry relative="1" as="geometry">
            <mxPoint x="550" y="270" as="sourcePoint" />
            <mxPoint x="710" y="270" as="targetPoint" />
            <Array as="points">
              <mxPoint x="580" y="225" />
            </Array>
          </mxGeometry>
        </mxCell>
        <mxCell id="u1Pb9LZNwORxA4Dk1w96-118" value="" style="endArrow=none;html=1;rounded=0;exitX=1;exitY=0.5;exitDx=0;exitDy=0;entryX=0;entryY=0.5;entryDx=0;entryDy=0;" edge="1" parent="u1Pb9LZNwORxA4Dk1w96-138" source="u1Pb9LZNwORxA4Dk1w96-91" target="u1Pb9LZNwORxA4Dk1w96-116">
          <mxGeometry relative="1" as="geometry">
            <mxPoint x="860" y="205" as="sourcePoint" />
            <mxPoint x="900" y="180" as="targetPoint" />
            <Array as="points">
              <mxPoint x="880" y="175" />
            </Array>
          </mxGeometry>
        </mxCell>
        <mxCell id="u1Pb9LZNwORxA4Dk1w96-119" value="" style="endArrow=none;html=1;rounded=0;exitX=1;exitY=0.5;exitDx=0;exitDy=0;entryX=0;entryY=0.5;entryDx=0;entryDy=0;" edge="1" parent="u1Pb9LZNwORxA4Dk1w96-138" source="u1Pb9LZNwORxA4Dk1w96-91" target="u1Pb9LZNwORxA4Dk1w96-117">
          <mxGeometry relative="1" as="geometry">
            <mxPoint x="820" y="280" as="sourcePoint" />
            <mxPoint x="980" y="280" as="targetPoint" />
            <Array as="points">
              <mxPoint x="880" y="225" />
            </Array>
          </mxGeometry>
        </mxCell>
        <mxCell id="u1Pb9LZNwORxA4Dk1w96-123" value="" style="endArrow=none;html=1;rounded=0;entryX=0.5;entryY=1;entryDx=0;entryDy=0;exitX=1;exitY=0;exitDx=0;exitDy=0;" edge="1" parent="u1Pb9LZNwORxA4Dk1w96-138" source="u1Pb9LZNwORxA4Dk1w96-121" target="u1Pb9LZNwORxA4Dk1w96-91">
          <mxGeometry relative="1" as="geometry">
            <mxPoint x="510" y="50" as="sourcePoint" />
            <mxPoint x="670" y="50" as="targetPoint" />
          </mxGeometry>
        </mxCell>
        <mxCell id="u1Pb9LZNwORxA4Dk1w96-124" value="N" style="resizable=0;html=1;whiteSpace=wrap;align=right;verticalAlign=bottom;" connectable="0" vertex="1" parent="u1Pb9LZNwORxA4Dk1w96-123">
          <mxGeometry x="1" relative="1" as="geometry">
            <mxPoint x="10" y="20" as="offset" />
          </mxGeometry>
        </mxCell>
        <mxCell id="u1Pb9LZNwORxA4Dk1w96-125" value="" style="endArrow=none;html=1;rounded=0;entryX=0.5;entryY=1;entryDx=0;entryDy=0;exitX=0;exitY=0;exitDx=0;exitDy=0;" edge="1" parent="u1Pb9LZNwORxA4Dk1w96-138" source="u1Pb9LZNwORxA4Dk1w96-121" target="u1Pb9LZNwORxA4Dk1w96-90">
          <mxGeometry relative="1" as="geometry">
            <mxPoint x="380" y="90" as="sourcePoint" />
            <mxPoint x="540" y="90" as="targetPoint" />
          </mxGeometry>
        </mxCell>
        <mxCell id="u1Pb9LZNwORxA4Dk1w96-126" value="1" style="resizable=0;html=1;whiteSpace=wrap;align=right;verticalAlign=bottom;" connectable="0" vertex="1" parent="u1Pb9LZNwORxA4Dk1w96-125">
          <mxGeometry x="1" relative="1" as="geometry">
            <mxPoint y="20" as="offset" />
          </mxGeometry>
        </mxCell>
        <mxCell id="u1Pb9LZNwORxA4Dk1w96-133" value="" style="endArrow=none;html=1;rounded=0;exitX=1;exitY=0.5;exitDx=0;exitDy=0;entryX=0;entryY=0.5;entryDx=0;entryDy=0;" edge="1" parent="u1Pb9LZNwORxA4Dk1w96-138" source="u1Pb9LZNwORxA4Dk1w96-127" target="u1Pb9LZNwORxA4Dk1w96-131">
          <mxGeometry relative="1" as="geometry">
            <mxPoint x="560" y="40" as="sourcePoint" />
            <mxPoint x="720" y="40" as="targetPoint" />
          </mxGeometry>
        </mxCell>
        <mxCell id="u1Pb9LZNwORxA4Dk1w96-134" value="" style="endArrow=none;html=1;rounded=0;exitX=1;exitY=0.5;exitDx=0;exitDy=0;entryX=0;entryY=0.5;entryDx=0;entryDy=0;" edge="1" parent="u1Pb9LZNwORxA4Dk1w96-138" source="u1Pb9LZNwORxA4Dk1w96-127" target="u1Pb9LZNwORxA4Dk1w96-130">
          <mxGeometry relative="1" as="geometry">
            <mxPoint x="610" y="-24" as="sourcePoint" />
            <mxPoint x="630" y="15" as="targetPoint" />
          </mxGeometry>
        </mxCell>
        <mxCell id="u1Pb9LZNwORxA4Dk1w96-135" value="" style="endArrow=none;html=1;rounded=0;exitX=1;exitY=0.5;exitDx=0;exitDy=0;entryX=0;entryY=0.5;entryDx=0;entryDy=0;" edge="1" parent="u1Pb9LZNwORxA4Dk1w96-138" source="u1Pb9LZNwORxA4Dk1w96-127" target="u1Pb9LZNwORxA4Dk1w96-129">
          <mxGeometry relative="1" as="geometry">
            <mxPoint x="620" y="-14" as="sourcePoint" />
            <mxPoint x="640" y="25" as="targetPoint" />
          </mxGeometry>
        </mxCell>
      </root>
    </mxGraphModel>
  </diagram>
</mxfile>
